<mxfile host="app.diagrams.net" modified="2022-05-21T13:04:08.647Z" agent="5.0 (Macintosh; Intel Mac OS X 10_15_7) AppleWebKit/605.1.15 (KHTML, like Gecko) Version/15.0 Safari/605.1.15" etag="sgbFJUOhXfZ9yKsHFlVb" version="18.0.2" type="github">
  <diagram id="daXITxXDJ2iwILPyfNYL" name="Page-1">
    <mxGraphModel dx="2190" dy="857" grid="0" gridSize="10" guides="1" tooltips="1" connect="1" arrows="1" fold="1" page="1" pageScale="1" pageWidth="827" pageHeight="1169" math="0" shadow="0">
      <root>
        <mxCell id="0" />
        <mxCell id="1" parent="0" />
        <mxCell id="AzrBzUhPsxiOfOHM3XDs-18" value="" style="rounded=0;whiteSpace=wrap;html=1;dashed=1;fontSize=27;fillColor=none;" vertex="1" parent="1">
          <mxGeometry x="42" y="487" width="510" height="260" as="geometry" />
        </mxCell>
        <mxCell id="AzrBzUhPsxiOfOHM3XDs-6" value="" style="rounded=0;whiteSpace=wrap;html=1;fontSize=27;dashed=1;" vertex="1" parent="1">
          <mxGeometry x="44" y="116" width="507" height="320" as="geometry" />
        </mxCell>
        <mxCell id="AzrBzUhPsxiOfOHM3XDs-12" style="rounded=0;orthogonalLoop=1;jettySize=auto;html=1;entryX=0.5;entryY=0;entryDx=0;entryDy=0;entryPerimeter=0;fontSize=27;" edge="1" parent="1" source="AzrBzUhPsxiOfOHM3XDs-1" target="AzrBzUhPsxiOfOHM3XDs-2">
          <mxGeometry relative="1" as="geometry" />
        </mxCell>
        <mxCell id="AzrBzUhPsxiOfOHM3XDs-13" style="edgeStyle=none;rounded=0;orthogonalLoop=1;jettySize=auto;html=1;entryX=0;entryY=0;entryDx=25;entryDy=0;entryPerimeter=0;fontSize=27;" edge="1" parent="1" source="AzrBzUhPsxiOfOHM3XDs-1" target="AzrBzUhPsxiOfOHM3XDs-3">
          <mxGeometry relative="1" as="geometry" />
        </mxCell>
        <mxCell id="AzrBzUhPsxiOfOHM3XDs-14" style="edgeStyle=none;rounded=0;orthogonalLoop=1;jettySize=auto;html=1;entryX=0;entryY=0;entryDx=25;entryDy=0;entryPerimeter=0;fontSize=27;" edge="1" parent="1" source="AzrBzUhPsxiOfOHM3XDs-1" target="AzrBzUhPsxiOfOHM3XDs-4">
          <mxGeometry relative="1" as="geometry" />
        </mxCell>
        <mxCell id="AzrBzUhPsxiOfOHM3XDs-1" value="dataFile" style="shape=note;whiteSpace=wrap;html=1;backgroundOutline=1;darkOpacity=0.05;" vertex="1" parent="1">
          <mxGeometry x="267" y="151" width="80" height="100" as="geometry" />
        </mxCell>
        <mxCell id="AzrBzUhPsxiOfOHM3XDs-15" style="rounded=0;orthogonalLoop=1;jettySize=auto;html=1;fontSize=27;shape=link;" edge="1" parent="1" source="AzrBzUhPsxiOfOHM3XDs-2" target="AzrBzUhPsxiOfOHM3XDs-20">
          <mxGeometry relative="1" as="geometry" />
        </mxCell>
        <mxCell id="AzrBzUhPsxiOfOHM3XDs-2" value="subDataFile" style="shape=note;whiteSpace=wrap;html=1;backgroundOutline=1;darkOpacity=0.05;" vertex="1" parent="1">
          <mxGeometry x="95.5" y="339" width="73" height="75" as="geometry" />
        </mxCell>
        <mxCell id="AzrBzUhPsxiOfOHM3XDs-16" style="edgeStyle=none;rounded=0;orthogonalLoop=1;jettySize=auto;html=1;fontSize=27;shape=link;entryX=0.431;entryY=-0.004;entryDx=0;entryDy=0;entryPerimeter=0;" edge="1" parent="1" source="AzrBzUhPsxiOfOHM3XDs-3" target="AzrBzUhPsxiOfOHM3XDs-23">
          <mxGeometry relative="1" as="geometry">
            <mxPoint x="272" y="501" as="targetPoint" />
          </mxGeometry>
        </mxCell>
        <mxCell id="AzrBzUhPsxiOfOHM3XDs-3" value="subDataFile" style="shape=note;whiteSpace=wrap;html=1;backgroundOutline=1;darkOpacity=0.05;" vertex="1" parent="1">
          <mxGeometry x="239" y="339" width="69" height="75" as="geometry" />
        </mxCell>
        <mxCell id="AzrBzUhPsxiOfOHM3XDs-28" style="edgeStyle=none;shape=link;rounded=0;orthogonalLoop=1;jettySize=auto;html=1;fontSize=24;entryX=0.412;entryY=0;entryDx=0;entryDy=0;entryPerimeter=0;" edge="1" parent="1" source="AzrBzUhPsxiOfOHM3XDs-4" target="AzrBzUhPsxiOfOHM3XDs-25">
          <mxGeometry relative="1" as="geometry">
            <mxPoint x="454" y="510" as="targetPoint" />
          </mxGeometry>
        </mxCell>
        <mxCell id="AzrBzUhPsxiOfOHM3XDs-4" value="subDataFile" style="shape=note;whiteSpace=wrap;html=1;backgroundOutline=1;darkOpacity=0.05;" vertex="1" parent="1">
          <mxGeometry x="420" y="339" width="68" height="73" as="geometry" />
        </mxCell>
        <mxCell id="AzrBzUhPsxiOfOHM3XDs-5" value="&lt;font style=&quot;font-size: 27px;&quot;&gt;...&lt;/font&gt;" style="text;html=1;align=center;verticalAlign=middle;resizable=0;points=[];autosize=1;strokeColor=none;fillColor=none;" vertex="1" parent="1">
          <mxGeometry x="347" y="381" width="34" height="22" as="geometry" />
        </mxCell>
        <mxCell id="AzrBzUhPsxiOfOHM3XDs-7" value="&lt;font style=&quot;font-size: 24px;&quot;&gt;数据解析和拆分&lt;/font&gt;" style="text;html=1;strokeColor=none;fillColor=none;align=center;verticalAlign=middle;whiteSpace=wrap;rounded=0;fontSize=27;" vertex="1" parent="1">
          <mxGeometry x="-3" y="119" width="305" height="30" as="geometry" />
        </mxCell>
        <mxCell id="AzrBzUhPsxiOfOHM3XDs-8" value="" style="shape=datastore;whiteSpace=wrap;html=1;fontSize=27;" vertex="1" parent="1">
          <mxGeometry x="102" y="629" width="60" height="60" as="geometry" />
        </mxCell>
        <mxCell id="AzrBzUhPsxiOfOHM3XDs-9" value="" style="shape=datastore;whiteSpace=wrap;html=1;fontSize=27;" vertex="1" parent="1">
          <mxGeometry x="251" y="629" width="60" height="60" as="geometry" />
        </mxCell>
        <mxCell id="AzrBzUhPsxiOfOHM3XDs-10" value="" style="shape=datastore;whiteSpace=wrap;html=1;fontSize=27;" vertex="1" parent="1">
          <mxGeometry x="430" y="629" width="60" height="60" as="geometry" />
        </mxCell>
        <mxCell id="AzrBzUhPsxiOfOHM3XDs-11" value="&lt;font style=&quot;font-size: 27px;&quot;&gt;...&lt;/font&gt;" style="text;html=1;align=center;verticalAlign=middle;resizable=0;points=[];autosize=1;strokeColor=none;fillColor=none;" vertex="1" parent="1">
          <mxGeometry x="347" y="642" width="34" height="22" as="geometry" />
        </mxCell>
        <mxCell id="AzrBzUhPsxiOfOHM3XDs-19" value="&lt;span style=&quot;font-weight: normal;&quot;&gt;数据传输和存储&lt;/span&gt;" style="text;strokeColor=none;fillColor=none;html=1;fontSize=24;fontStyle=1;verticalAlign=middle;align=center;dashed=1;" vertex="1" parent="1">
          <mxGeometry x="90" y="707" width="100" height="40" as="geometry" />
        </mxCell>
        <mxCell id="AzrBzUhPsxiOfOHM3XDs-22" style="edgeStyle=none;rounded=0;orthogonalLoop=1;jettySize=auto;html=1;fontSize=24;" edge="1" parent="1" source="AzrBzUhPsxiOfOHM3XDs-20" target="AzrBzUhPsxiOfOHM3XDs-8">
          <mxGeometry relative="1" as="geometry" />
        </mxCell>
        <mxCell id="AzrBzUhPsxiOfOHM3XDs-20" value="subDataFile" style="shape=note;whiteSpace=wrap;html=1;backgroundOutline=1;darkOpacity=0.05;" vertex="1" parent="1">
          <mxGeometry x="95.5" y="505" width="73" height="75" as="geometry" />
        </mxCell>
        <mxCell id="AzrBzUhPsxiOfOHM3XDs-24" style="edgeStyle=none;rounded=0;orthogonalLoop=1;jettySize=auto;html=1;entryX=0.421;entryY=0.005;entryDx=0;entryDy=0;entryPerimeter=0;fontSize=24;" edge="1" parent="1" source="AzrBzUhPsxiOfOHM3XDs-23" target="AzrBzUhPsxiOfOHM3XDs-9">
          <mxGeometry relative="1" as="geometry" />
        </mxCell>
        <mxCell id="AzrBzUhPsxiOfOHM3XDs-23" value="subDataFile" style="shape=note;whiteSpace=wrap;html=1;backgroundOutline=1;darkOpacity=0.05;" vertex="1" parent="1">
          <mxGeometry x="242" y="505" width="69" height="75" as="geometry" />
        </mxCell>
        <mxCell id="AzrBzUhPsxiOfOHM3XDs-26" style="edgeStyle=none;rounded=0;orthogonalLoop=1;jettySize=auto;html=1;entryX=0.5;entryY=0;entryDx=0;entryDy=0;fontSize=24;" edge="1" parent="1" source="AzrBzUhPsxiOfOHM3XDs-25" target="AzrBzUhPsxiOfOHM3XDs-10">
          <mxGeometry relative="1" as="geometry" />
        </mxCell>
        <mxCell id="AzrBzUhPsxiOfOHM3XDs-25" value="subDataFile" style="shape=note;whiteSpace=wrap;html=1;backgroundOutline=1;darkOpacity=0.05;" vertex="1" parent="1">
          <mxGeometry x="426" y="507" width="68" height="73" as="geometry" />
        </mxCell>
      </root>
    </mxGraphModel>
  </diagram>
</mxfile>
